<?xml version="1.0" encoding="UTF-8"?>
<svg id="Layer_2" data-name="Layer 2" xmlns="http://www.w3.org/2000/svg" viewBox="0 0 452.73 463.28">
  <defs>
    <style>
      .cls-1 {
        fill: #4d94c2;
      }

      .cls-1, .cls-2 {
        stroke-width: 0px;
      }

      .cls-2 {
        fill: #4e94c3;
      }
    </style>
  </defs>
  <g id="Layer_1-2" data-name="Layer 1">
    <g>
      <path class="cls-2" d="m226.25,18.24c-52.6,119.52-104.39,237.22-156.12,354.77C30.41,361.72-9.01,313.05,1.82,254.43c10.61-57.39,70.03-99.03,135.02-81.45,1.13-2.45,2.3-4.99,3.63-7.88-17.28-28.3-22.23-58.48-13.11-90.51,6.24-21.91,18.68-39.72,36.94-53.33,39.17-29.19,89.04-28.1,126.71,1.84,36.96,29.37,53.5,88.65,21.5,142.12.91,2.33,1.94,4.96,3.18,8.16,34.49-9.69,66.14-3.61,94.81,17.03,22.59,16.26,35.29,38.84,40.57,65.98,9.38,48.24-22.22,103.12-68.57,116.92-51.79-117.7-103.66-235.55-156.25-355.08Z"/>
      <path class="cls-1" d="m278.54,463.28h-103.99v-124.3c-29.23,13.63-57.07,26.62-86.95,40.55,46.47-105.76,92.07-209.55,138.77-315.84,46.42,105.75,91.96,209.5,137.5,313.24-.37.48-.75.95-1.12,1.43-27.7-12.91-55.4-25.81-84.21-39.24v124.15Z"/>
    </g>
  </g>
</svg>